<svg xmlns="http://www.w3.org/2000/svg" viewBox="0 0 97.79 97.77"><defs><style>.cls-1{fill:#3d3d3d;}</style></defs><g id="Layer_2" data-name="Layer 2"><g id="Layer_1-2" data-name="Layer 1"><path class="cls-1" d="M86.4,26.07v3.26h9.33c1.47,0,2,.57,2,2,0,4.61,0,9.23,0,13.85,0,1.47-.57,2-2,2H86.44v3.26h7.94c.51,0,1,0,1.53,0a1.67,1.67,0,0,1,1.87,1.89c0,3.63,0,7.27,0,10.9,0,1.08,0,2.17,0,3.26a1.66,1.66,0,0,1-1.9,1.86c-3.12,0-6.24,0-9.43,0V71.7h1.39c2.68,0,5.36,0,8,0a1.66,1.66,0,0,1,1.89,1.87q0,7.08,0,14.15c0,1.31-.62,1.89-2,1.9H86.46a7.74,7.74,0,0,0-.08.8c0,1.69,0,3.39,0,5.09s-.5,2.26-2.22,2.26H13.88c-2,0-2.46-.44-2.46-2.43V89.62H2.13C.59,89.62,0,89.07,0,87.56q0-6.93,0-13.85c0-1.45.58-2,2.05-2,2.75,0,5.5,0,8.25,0h1V68.44H2.06c-1.47,0-2-.58-2-2q0-6.92,0-13.84c0-1.47.57-2,2-2h9.31V47.25c-2.37,0-4.7,0-7,0-4.5.06-4.34.09-4.31-4.35C0,39.1,0,35.3,0,31.5c0-1.65.52-2.17,2.2-2.17h9.13V26.07H1.91A1.66,1.66,0,0,1,0,24.2Q0,17.12,0,10c0-1.3.62-1.89,2-1.89h9.35a7.83,7.83,0,0,0,.08-.79V3.18c0-3,.17-3.18,3.13-3.18H83.9C86,0,86.37.42,86.37,2.52c0,1.83,0,3.66,0,5.58l1,.05h8.35c1.46,0,2,.58,2,2,0,4.61,0,9.23,0,13.85,0,1.45-.58,2-2,2ZM14.75,3.32V94.46H83.06V3.33H61.89a13.17,13.17,0,0,1-12.4,14.59A13.22,13.22,0,0,1,35.86,3.32Zm24.58,0c-.87,3.53,1.05,7.81,4.38,9.87a9.74,9.74,0,0,0,11.4-.73c2.75-2.29,4.31-6.6,3.27-9.14Zm-36,8.14V22.74h8V11.43ZM94.45,22.77V11.49h-8V22.77ZM11.35,44V32.67h-8V44Zm75.1-11.31V43.92h8V32.64ZM3.32,65.12h8V53.85h-8Zm91.15,0V53.83h-8V65.14ZM3.35,75V86.28h8V75Zm83.1,0V86.28h8V75Z"/></g></g></svg>