<svg xmlns="http://www.w3.org/2000/svg" viewBox="0 0 68.02 113.39"><defs><style>.cls-1{fill:#3d3d3d;}</style></defs><g id="Layer_2" data-name="Layer 2"><g id="Layer_1-2" data-name="Layer 1"><path class="cls-1" d="M62.37,71.86v1.85h3.38c1.55,0,2.25.69,2.26,2.23,0,2.28,0,4.56,0,6.84C68,84.37,67.3,85,65.67,85H51v25.64c0,2.15-.55,2.69-2.73,2.69s-4.17,0-6.26,0c-1.69,0-2.34-.67-2.34-2.38q0-12.27,0-24.55V85.11H28.34v25.65c0,2-.59,2.62-2.57,2.62s-4,0-6,0c-2.19,0-2.74-.54-2.74-2.69V85.05H2.47C.63,85,0,84.41,0,82.55c0-2.2,0-4.4,0-6.61,0-1.54.7-2.2,2.25-2.23l3.19,0s.06,0,.16-.11V71.82c-.42,0-.88,0-1.33,0-1.75,0-2.38-.66-2.38-2.45q0-4.2,0-8.38c0-9.56,0-19.13,0-28.69a32.1,32.1,0,0,1,63.76-5.41,38.57,38.57,0,0,1,.44,5.87q.06,18,0,36c0,2.6-.4,3-3,3.06ZM39.68,81.21V55.52c0-1.82.32-2.23,2.11-2.69l6.06-1.53c2.31-.58,3.16.09,3.16,2.46V81.21H64.16V77.49H62.45c-.59,0-1.18,0-1.77,0a1.89,1.89,0,0,1-2.1-2q-.06-2.72,0-5.43a1.86,1.86,0,0,1,2-2c.57,0,1.14,0,1.76,0v-.89c0-11.72,0-23.45,0-35.18a30,30,0,0,0-.44-4.81,28.32,28.32,0,0,0-56.2,5.3q0,17.12,0,34.23V68H7c1.86,0,2.47.63,2.48,2.49,0,1.57,0,3.15,0,4.72s-.71,2.22-2.25,2.24c-1.12,0-2.25,0-3.35,0v3.7H17V34.61c0-1.8.63-2.46,2.37-2.46H48.66c1.69,0,2.34.67,2.35,2.38,0,2.71,0,5.43,0,8.14,0,1.91-.27,2.28-2.09,2.89Q39.19,48.8,29.45,52a1.36,1.36,0,0,0-1.13,1.56c0,8.81,0,17.63,0,26.44v1.2Zm-15.12,0V52c0-2.09.22-2.38,2.2-3L46.2,42.47c.38-.13,1-.49,1-.77.09-1.9,0-3.81,0-5.71H20.85V81.22Zm19-24.93V81.2h3.66V55.39Zm-19,53.26V85.14H20.85v24.41ZM43.54,85.1v24.45h3.63V85.1Z"/><path class="cls-1" d="M11.46,23.89A26.93,26.93,0,0,1,25.65,9.65c.15.28.27.47.36.68.38.9.75,1.8,1.15,2.77A23.15,23.15,0,0,0,15,25.33Z"/></g></g></svg>