<svg xmlns="http://www.w3.org/2000/svg" viewBox="0 0 65.75 98.65"><defs><style>.cls-1{fill:#3d3d3d;}</style></defs><g id="Layer_2" data-name="Layer 2"><g id="Layer_1-2" data-name="Layer 1"><path class="cls-1" d="M44.38,51H37.81v1.25q0,22,0,44c0,2-.46,2.4-2.43,2.4H30.14c-1.67,0-2.19-.54-2.2-2.22V51.05H21.37V96.22c0,2-.46,2.43-2.4,2.43H13.84c-1.83,0-2.33-.49-2.33-2.29V51H3.12C.19,51,0,50.79,0,47.82c0-1.58,0-3.15,0-4.73,0-1.39.6-2,2-2H4.59A2.21,2.21,0,0,0,4.93,41V39.87q0-17.11,0-34.22C4.93,2,6.87,0,10.55,0H55.12c3.78,0,5.69,1.9,5.69,5.68q0,17.06,0,34.11v1.32c1.08,0,2.06,0,3,0A1.68,1.68,0,0,1,65.74,43q0,3,0,6.06A1.68,1.68,0,0,1,63.83,51H54.24V96.28c0,1.89-.48,2.37-2.36,2.37H46.64c-1.74,0-2.26-.51-2.26-2.26V51ZM8.22,41H57.53V5.64c0-1.87-.48-2.35-2.38-2.35H10.59c-1.9,0-2.37.47-2.37,2.35V41ZM3.34,47.62h59V44.44h-59ZM18,95.32V51.05H14.85V95.32Zm16.44,0V51.05H31.28V95.32ZM47.73,51V95.28H50.9V51Z"/><path class="cls-1" d="M21.29,9.87H14.81V18H11.57c0-.28-.06-.57-.06-.87,0-2.43,0-4.86,0-7.28a3.21,3.21,0,0,1,3.22-3.3c2.16,0,4.31,0,6.55,0Z"/><path class="cls-1" d="M14.75,21.45v3.16H11.56V21.45Z"/></g></g></svg>