<svg xmlns="http://www.w3.org/2000/svg" viewBox="0 0 137.95 78.17"><defs><style>.cls-1{fill:#3d3d3d;}</style></defs><g id="Layer_2" data-name="Layer 2"><g id="Layer_1-2" data-name="Layer 1"><path class="cls-1" d="M124.22,55.18v9.15h9V68.9h-9.11v1.95c0,4.38-2.93,7.31-7.29,7.31H46.75c-4.86,0-7.66-2.81-7.66-7.67V55.18H33c-2.32,0-3.05-.76-3.06-3.12,0-1.87,0-3.74,0-5.6a2.9,2.9,0,0,0-.08-.38h-9.1c0,1.39,0,2.76,0,4.13,0,1.8-.86,2.65-2.65,2.66q-7.68,0-15.37,0A2.33,2.33,0,0,1,0,50.23Q0,39.08,0,28A2.33,2.33,0,0,1,2.65,25.3q7.7,0,15.38,0a2.34,2.34,0,0,1,2.66,2.64c0,1.34,0,2.68,0,4.13h9.2V26c0-2.24.77-3,3-3h6.16V17c0-3.16,0-6.32,0-9.48C39.1,2.85,41.92,0,46.58,0h70.11c4.59,0,7.43,2.85,7.46,7.43V9.2h9.11v4.53h-9V23c1.41,0,2.78,0,4.16,0A2.35,2.35,0,0,1,131,25.66c0,2.1,0,4.21,0,6.53,1.42,0,2.79,0,4.15,0,1.88,0,2.72.85,2.74,2.72q0,4.23,0,8.48A2.32,2.32,0,0,1,135.36,46c-1.38,0-2.76,0-4.31,0,0,2.14,0,4.18,0,6.23s-.78,2.95-2.91,3ZM101.09,4.6H46.84c-2.44,0-3.15.72-3.15,3.17q0,31.31,0,62.63c0,2.45.71,3.17,3.15,3.17H101V59.78H51.51c-2.54,0-3.23-.7-3.23-3.24V21.77c0-2.74.64-3.38,3.38-3.38h49.43Zm0,18.49H53v32h48.1Zm4.77-18.48v69h10.42c2.6,0,3.27-.68,3.27-3.34V7.77c0-.28,0-.57,0-.86a2.21,2.21,0,0,0-2.28-2.28C113.49,4.58,109.72,4.61,105.86,4.61ZM39,50.53V27.67h-4.4V50.53Zm85.27-22.88V50.52h2.12V27.65ZM16,41.32V36.88H4.71v4.44ZM29.84,36.9H20.77v4.4h9.07ZM16,30H4.67v2.12H16Zm0,16.09H4.72v2.13H16Zm117.23-4.72V36.89h-2.11v4.47Z"/></g></g></svg>