<svg width="24" height="24" viewBox="0 0 24 24" fill="none" xmlns="http://www.w3.org/2000/svg">
<path d="M19.55 20.575L13.25 14.3C12.75 14.7167 12.175 15.0417 11.525 15.275C10.875 15.5083 10.2083 15.625 9.52499 15.625C7.80833 15.625 6.35833 15.0333 5.17499 13.85C3.99166 12.6667 3.39999 11.2167 3.39999 9.5C3.39999 7.8 3.99166 6.354 5.17499 5.162C6.35833 3.97067 7.80833 3.375 9.52499 3.375C11.225 3.375 12.6667 3.96667 13.85 5.15C15.0333 6.33333 15.625 7.78333 15.625 9.5C15.625 10.2167 15.5083 10.9 15.275 11.55C15.0417 12.2 14.725 12.7667 14.325 13.25L20.6 19.525L19.55 20.575ZM9.52499 14.125C10.8083 14.125 11.896 13.675 12.788 12.775C13.6793 11.875 14.125 10.7833 14.125 9.5C14.125 8.21667 13.6793 7.125 12.788 6.225C11.896 5.325 10.8083 4.875 9.52499 4.875C8.22499 4.875 7.12933 5.325 6.23799 6.225C5.34599 7.125 4.89999 8.21667 4.89999 9.5C4.89999 10.7833 5.34599 11.875 6.23799 12.775C7.12933 13.675 8.22499 14.125 9.52499 14.125Z" fill="#616161"/>
</svg>
