<svg width="40" height="42" viewBox="0 0 40 42" fill="none" xmlns="http://www.w3.org/2000/svg">
<path d="M0 34.7812H40V7.21875H0V34.7812Z" fill="#012169"/>
<path d="M23.4453 24.6012V25.8973L36.4531 34.7812H40V31.9922L29.1797 24.6012H23.4453Z" fill="white"/>
<path d="M23.4453 17.3988H28.9453L40 9.86016V7.21876H36.2188L23.4453 15.9551V17.3988Z" fill="white"/>
<path d="M3.46875 34.7812L16.5703 25.848V24.6012H10.7422L0 31.943V34.7812H3.46875Z" fill="white"/>
<path d="M16.5703 17.3988V16.0043L3.6875 7.21876H0V9.90938L10.9609 17.3988H16.5703Z" fill="white"/>
<path d="M0 24.6012H16.5703V34.7812H23.4453V24.6012H40V17.3988H23.4453V7.21875H16.5703V17.3988H0V24.6012Z" fill="white"/>
<path d="M0 23.182H17.9297V34.7812H22.0703V23.182H40V18.8344H22.0703V7.21875H17.9297V18.8344H0V23.182Z" fill="#C8102E"/>
<path d="M24.8203 24.6012L39.7344 34.7812H40V33.2063L27.3984 24.6012H24.8203Z" fill="#C8102E"/>
<path d="M23.4453 17.3988H26.0078L40 7.84219V7.21876H38.3438L23.4453 17.3988Z" fill="#C8102E"/>
<path d="M15.4297 17.3988L0.515625 7.21876H0V8.62969L12.8516 17.3988H15.4297Z" fill="#C8102E"/>
<path d="M1.67187 34.7812L16.5703 24.6176V24.6012H14.0078L0 34.1578V34.7812H1.67187Z" fill="#C8102E"/>
</svg>
